STARTFONT 2.1
FONT -integratedmapping-CalBlk36-bold-r-normal--36-360-75-75-c-80-iso10646-1
SIZE 36 75 75
FONTBOUNDINGBOX 36 28 0 -8
CHARS 96
STARTCHAR U+0020
ENCODING 32
SWIDTH 286 0
DWIDTH 9 0
BBX 8 36 0 -8
BITMAP
00
00
00
00
00
00
00
00
00
00
00
00
00
00
00
00
00
00
00
00
00
00
00
00
00
00
00
00
00
00
00
00
00
00
00
00
ENDCHAR
STARTCHAR U+0021
ENCODING 33
SWIDTH 286 0
DWIDTH 9 0
BBX 8 36 0 -8
BITMAP
00
00
ff
ff
ff
ff
ff
ff
ff
ff
ff
7e
7e
7e
7e
7e
7e
7e
7e
3c
00
00
ff
ff
ff
ff
ff
ff
00
00
00
00
00
00
00
00
ENDCHAR
STARTCHAR U+0022
ENCODING 34
SWIDTH 571 0
DWIDTH 17 0
BBX 16 36 0 -8
BITMAP
0000
0000
fe7f
fe7f
fe7f
fe7f
fe7f
fe7f
fe7f
7c3e
7c3e
7c3e
0000
0000
0000
0000
0000
0000
0000
0000
0000
0000
0000
0000
0000
0000
0000
0000
0000
0000
0000
0000
0000
0000
0000
0000
ENDCHAR
STARTCHAR U+0023
ENCODING 35
SWIDTH 786 0
DWIDTH 23 0
BBX 22 36 0 -8
BITMAP
000000
000000
03e1f0
03e1f0
03e1f0
03e1f0
03e3e0
07c3e0
fffffc
fffffc
fffffc
fffffc
fffffc
0f87c0
0f87c0
0f87c0
0f8f80
fffff8
fffffc
fffffc
fffffc
fffffc
3f1f00
3e1f00
3e1f00
3e1f00
3e3e00
7c3e00
000000
000000
000000
000000
000000
000000
000000
000000
ENDCHAR
STARTCHAR U+0024
ENCODING 36
SWIDTH 786 0
DWIDTH 23 0
BBX 22 36 0 -8
BITMAP
003000
003000
01fe00
07ffc0
1fffe0
3ffff0
3ffff8
7f37f8
7f33f0
7f3000
7fb000
7ff000
3ffe00
3fff80
1fffe0
0ffff0
01fff8
007ff8
003ffc
0033fc
fe31fc
ff31fc
7f33f8
7ffff8
3ffff0
3fffe0
0fffc0
07ff80
00fc00
003000
003000
003000
000000
000000
000000
000000
ENDCHAR
STARTCHAR U+0025
ENCODING 37
SWIDTH 1143 0
DWIDTH 33 0
BBX 32 36 0 -8
BITMAP
00000000
00000000
1fc00780
3ff00700
7ff00f00
78f00e00
f8f81e00
f0781c00
f0783c00
f0787800
f8f87800
78f0f000
7ff0f000
3ff1e000
1fc1c000
0003c000
000383f8
00078ffc
00070ffe
000f0f1e
000e1f1f
001e1e0f
003c1e0f
003c1e0f
00781f1f
00780f1e
00f00ffe
00e00ffc
01e003f8
00000000
00000000
00000000
00000000
00000000
00000000
00000000
ENDCHAR
STARTCHAR U+0026
ENCODING 38
SWIDTH 964 0
DWIDTH 28 0
BBX 27 36 0 -8
BITMAP
00000000
00000000
00ff0000
03ffc000
07ffe000
0ffff000
0fe3f000
0fc1f000
0fc1f000
0fe3f000
0fffe000
07ffe000
07ffc000
03ff0000
0ffe0000
1fff0000
3fffcf80
7fffff80
ff1fff80
fe0fff80
fe07ff00
fe03ff00
ff01ff80
ff87ffc0
7fffffc0
3fffffc0
1fffc780
07ff0300
00000000
00000000
00000000
00000000
00000000
00000000
00000000
00000000
ENDCHAR
STARTCHAR U+0027
ENCODING 39
SWIDTH 286 0
DWIDTH 9 0
BBX 8 36 0 -8
BITMAP
00
00
7e
ff
ff
ff
7f
7e
7e
7e
7e
3c
00
00
00
00
00
00
00
00
00
00
00
00
00
00
00
00
00
00
00
00
00
00
00
00
ENDCHAR
STARTCHAR U+0028
ENCODING 40
SWIDTH 357 0
DWIDTH 11 0
BBX 10 36 0 -8
BITMAP
0000
0000
03c0
07c0
0fc0
0f80
1f80
1f00
3f00
3f00
7e00
7e00
7e00
7e00
fe00
fe00
fe00
fc00
fc00
fc00
fe00
fe00
fe00
fe00
7e00
7e00
7e00
3f00
3f00
1f00
1f00
0f80
0000
0000
0000
0000
ENDCHAR
STARTCHAR U+0029
ENCODING 41
SWIDTH 357 0
DWIDTH 11 0
BBX 10 36 0 -8
BITMAP
0000
0000
f000
f800
7c00
7c00
7e00
3e00
3f00
3f00
1f80
1f80
1f80
1f80
1fc0
1fc0
1fc0
0fc0
0fc0
0fc0
1fc0
1fc0
1fc0
1fc0
1f80
1f80
1f80
3f00
3f00
3e00
3e00
7c00
0000
0000
0000
0000
ENDCHAR
STARTCHAR U+002a
ENCODING 42
SWIDTH 500 0
DWIDTH 15 0
BBX 14 36 0 -8
BITMAP
0000
0000
0780
0780
0780
7338
7ff8
7ff8
3ff0
0f80
1fe0
3df0
3cf0
18e0
0000
0000
0000
0000
0000
0000
0000
0000
0000
0000
0000
0000
0000
0000
0000
0000
0000
0000
0000
0000
0000
0000
ENDCHAR
STARTCHAR U+002b
ENCODING 43
SWIDTH 679 0
DWIDTH 20 0
BBX 19 36 0 -8
BITMAP
000000
000000
000000
000000
000000
000000
01f800
01f800
01f800
01f800
01f800
01f800
ffffe0
ffffe0
ffffe0
ffffe0
ffffe0
ffffe0
01f800
01f800
01f800
01f800
01f800
01f800
01f800
000000
000000
000000
000000
000000
000000
000000
000000
000000
000000
000000
ENDCHAR
STARTCHAR U+002c
ENCODING 44
SWIDTH 286 0
DWIDTH 9 0
BBX 8 36 0 -8
BITMAP
00
00
00
00
00
00
00
00
00
00
00
00
00
00
00
00
00
00
00
00
00
ff
ff
ff
ff
ff
ff
ff
0f
1e
1e
7e
00
00
00
00
ENDCHAR
STARTCHAR U+002d
ENCODING 45
SWIDTH 357 0
DWIDTH 11 0
BBX 10 36 0 -8
BITMAP
0000
0000
0000
0000
0000
0000
0000
0000
0000
0000
0000
0000
0000
0000
0000
0000
ffc0
ffc0
ffc0
ffc0
ffc0
0000
0000
0000
0000
0000
0000
0000
0000
0000
0000
0000
0000
0000
0000
0000
ENDCHAR
STARTCHAR U+002e
ENCODING 46
SWIDTH 286 0
DWIDTH 9 0
BBX 8 36 0 -8
BITMAP
00
00
00
00
00
00
00
00
00
00
00
00
00
00
00
00
00
00
00
00
00
ff
ff
ff
ff
ff
ff
ff
00
00
00
00
00
00
00
00
ENDCHAR
STARTCHAR U+002f
ENCODING 47
SWIDTH 357 0
DWIDTH 11 0
BBX 10 36 0 -8
BITMAP
0000
0000
03c0
03c0
0380
0380
0780
0780
0700
0700
0f00
0f00
0f00
0e00
1e00
1e00
1e00
1c00
3c00
3c00
3c00
3800
7800
7800
7800
7000
f000
f000
0000
0000
0000
0000
0000
0000
0000
0000
ENDCHAR
STARTCHAR U+0030
ENCODING 48
SWIDTH 750 0
DWIDTH 22 0
BBX 21 36 0 -8
BITMAP
000000
000000
03fc00
0fff00
3fff80
3fffc0
7fffe0
7f0fe0
fe07f0
fe07f0
fe07f0
fe07f0
fe07f0
fe07f0
fe07f0
fe07f0
fe07f0
fe07f0
fe07f0
fe07f0
fe07f0
fe07f0
7f0fe0
7fffe0
3fffe0
3fffc0
1fff80
07fe00
000000
000000
000000
000000
000000
000000
000000
000000
ENDCHAR
STARTCHAR U+0031
ENCODING 49
SWIDTH 536 0
DWIDTH 16 0
BBX 15 36 0 -8
BITMAP
0000
0000
00fe
00fe
01fe
03fe
07fe
1ffe
fffe
fffe
fffe
fdfe
f9fe
e1fe
01fe
01fe
01fe
01fe
01fe
01fe
01fe
01fe
01fe
01fe
01fe
01fe
01fe
01fe
0000
0000
0000
0000
0000
0000
0000
0000
ENDCHAR
STARTCHAR U+0032
ENCODING 50
SWIDTH 750 0
DWIDTH 22 0
BBX 21 36 0 -8
BITMAP
000000
000000
03ff00
0fffc0
1fffe0
3ffff0
7ffff8
7f87f8
7f03f8
7f03f8
0003f8
0007f8
0007f0
000ff0
003fe0
007fc0
01ff80
03ff00
07fe00
0ff800
1ff000
1fe000
3ffff8
7ffff8
fffff8
fffff8
fffff8
fffff8
000000
000000
000000
000000
000000
000000
000000
000000
ENDCHAR
STARTCHAR U+0033
ENCODING 51
SWIDTH 714 0
DWIDTH 21 0
BBX 20 36 0 -8
BITMAP
000000
000000
07fe00
1fff80
3fffc0
7fffc0
7fbfe0
fe0fe0
fe0fe0
000fe0
000fe0
003fc0
00ff80
00ff00
00ff80
00ffe0
00fff0
000ff0
0007f0
0007f0
0007f0
fe07f0
fe07f0
ff0ff0
7fffe0
3fffc0
1fff80
07fe00
000000
000000
000000
000000
000000
000000
000000
000000
ENDCHAR
STARTCHAR U+0034
ENCODING 52
SWIDTH 786 0
DWIDTH 23 0
BBX 22 36 0 -8
BITMAP
000000
000000
000fe0
001fe0
001fe0
003fe0
007fe0
00ffe0
01ffe0
03ffe0
07f7e0
07e7e0
0fc7e0
1f87e0
3f87e0
7f07e0
fe07e0
fc07e0
fffffc
fffffc
fffffc
fffffc
fffffc
0007e0
0007e0
0007e0
0007e0
0007e0
000000
000000
000000
000000
000000
000000
000000
000000
ENDCHAR
STARTCHAR U+0035
ENCODING 53
SWIDTH 750 0
DWIDTH 22 0
BBX 21 36 0 -8
BITMAP
000000
000000
3fffe0
3fffe0
3fffe0
3fffe0
3fffe0
3fffe0
3e0000
3e0000
3e0000
3fff00
3fff80
3fffe0
3fffe0
3f0ff0
1e07f0
0007f8
0007f8
0007f8
0007f8
7e07f0
7e07f0
7f0fe0
7fffe0
3fffc0
1fff80
07fe00
000000
000000
000000
000000
000000
000000
000000
000000
ENDCHAR
STARTCHAR U+0036
ENCODING 54
SWIDTH 750 0
DWIDTH 22 0
BBX 21 36 0 -8
BITMAP
000000
000000
03fe00
0fff80
1fffc0
3fffe0
7f8fe0
7f07e0
7f0000
fe0000
fe0000
fe7f00
feff80
ffffc0
ffffe0
ff8ff0
ff07f0
fe03f8
fe03f8
fe03f8
fe03f8
fe03f8
7f07f0
7f8ff0
3fffe0
1fffe0
0fff80
03ff00
000000
000000
000000
000000
000000
000000
000000
000000
ENDCHAR
STARTCHAR U+0037
ENCODING 55
SWIDTH 714 0
DWIDTH 21 0
BBX 20 36 0 -8
BITMAP
000000
000000
fffff0
fffff0
fffff0
fffff0
fffff0
fffff0
000fe0
001fc0
001f80
003f80
007f00
007e00
00fe00
00fc00
01fc00
01f800
03f800
03f800
03f000
07f000
07f000
07f000
07f000
0fe000
0fe000
0fe000
000000
000000
000000
000000
000000
000000
000000
000000
ENDCHAR
STARTCHAR U+0038
ENCODING 56
SWIDTH 714 0
DWIDTH 21 0
BBX 20 36 0 -8
BITMAP
000000
000000
07fe00
1fff80
3fffc0
7fffe0
7f1fe0
fe0ff0
fe07f0
fe07f0
7e0fe0
7f0fe0
3fffc0
1fff80
1fff80
3fffc0
7f9fe0
ff0ff0
fe07f0
fe07f0
fe07f0
fe07f0
fe07f0
ff0ff0
7fffe0
7fffc0
3fffc0
0ffe00
000000
000000
000000
000000
000000
000000
000000
000000
ENDCHAR
STARTCHAR U+0039
ENCODING 57
SWIDTH 750 0
DWIDTH 22 0
BBX 21 36 0 -8
BITMAP
000000
000000
03fe00
0fff80
1fffc0
3fffe0
7f9ff0
7f07f0
fe03f0
fe03f8
fe03f8
fe03f8
fe03f8
ff07f8
7f8ff8
3ffff8
3ffff8
1ffbf8
07f3f8
0003f8
0003f8
0007f8
7f07f0
7f8ff0
3fffe0
1fffc0
0fff80
07fe00
000000
000000
000000
000000
000000
000000
000000
000000
ENDCHAR
STARTCHAR U+003a
ENCODING 58
SWIDTH 286 0
DWIDTH 9 0
BBX 8 36 0 -8
BITMAP
00
00
00
00
00
00
00
00
00
ff
ff
ff
ff
ff
ff
ff
00
00
00
00
00
ff
ff
ff
ff
ff
ff
ff
00
00
00
00
00
00
00
00
ENDCHAR
STARTCHAR U+003b
ENCODING 59
SWIDTH 286 0
DWIDTH 9 0
BBX 8 36 0 -8
BITMAP
00
00
00
00
00
00
00
00
00
ff
ff
ff
ff
ff
ff
ff
00
00
00
00
00
ff
ff
ff
ff
ff
ff
ff
0f
1e
1e
7e
00
00
00
00
ENDCHAR
STARTCHAR U+003c
ENCODING 60
SWIDTH 714 0
DWIDTH 21 0
BBX 20 36 0 -8
BITMAP
000000
000000
000000
000000
000010
000070
0003f0
000ff0
003ff0
01fff0
07fff0
3fff80
fffe00
fff000
ff8000
ff8000
ffe000
fffc00
3fff00
0fffe0
01fff0
007ff0
001ff0
0003f0
0000f0
000010
000000
000000
000000
000000
000000
000000
000000
000000
000000
000000
ENDCHAR
STARTCHAR U+003d
ENCODING 61
SWIDTH 679 0
DWIDTH 20 0
BBX 19 36 0 -8
BITMAP
000000
000000
000000
000000
000000
000000
000000
000000
000000
ffffe0
ffffe0
ffffe0
ffffe0
ffffe0
000000
000000
000000
ffffe0
ffffe0
ffffe0
ffffe0
ffffe0
000000
000000
000000
000000
000000
000000
000000
000000
000000
000000
000000
000000
000000
000000
ENDCHAR
STARTCHAR U+003e
ENCODING 62
SWIDTH 714 0
DWIDTH 21 0
BBX 20 36 0 -8
BITMAP
000000
000000
000000
000000
800000
e00000
f80000
ff0000
ffc000
fff800
fffe00
1fff80
07fff0
00fff0
003ff0
001ff0
007ff0
03fff0
1fffc0
7fff00
fff800
ffe000
ff0000
fc0000
f00000
800000
000000
000000
000000
000000
000000
000000
000000
000000
000000
000000
ENDCHAR
STARTCHAR U+003f
ENCODING 63
SWIDTH 714 0
DWIDTH 21 0
BBX 20 36 0 -8
BITMAP
000000
000000
03fc00
0fff80
1fffc0
3fffe0
7fffe0
7f9ff0
7f0ff0
7e0ff0
1e0ff0
001ff0
003fe0
007fc0
00ff80
01fe00
01fc00
03f800
03f800
03f800
000000
000000
03f800
03f800
03f800
03f800
03f800
03f800
000000
000000
000000
000000
000000
000000
000000
000000
ENDCHAR
STARTCHAR U+0040
ENCODING 64
SWIDTH 964 0
DWIDTH 28 0
BBX 27 36 0 -8
BITMAP
00000000
00000000
003fe000
01fff800
03f9fc00
07801e00
0f000f00
1c1c0380
387e7380
38fff1c0
71f3f1c0
71e1f0c0
63c1f0e0
e3c0e0e0
e781e0e0
e781e0e0
e781e0c0
e781e0c0
e781e1c0
e781c1c0
e783c380
e783c780
73c7cf00
73fffe00
39fdfc00
3878f000
1c0001c0
0e000780
07801f00
03fffe00
01fff800
003fc000
00000000
00000000
00000000
00000000
ENDCHAR
STARTCHAR U+0041
ENCODING 65
SWIDTH 1000 0
DWIDTH 29 0
BBX 28 36 0 -8
BITMAP
00000000
00000000
003fc000
007fe000
007fe000
00fff000
00fff000
00fff000
01fff800
01fff800
01fbfc00
03f9fc00
03f9fc00
07f9fe00
07f0fe00
07f0fe00
0ff0ff00
0fe07f00
0fffff80
1fffff80
1fffff80
3fffffc0
3fffffc0
3fffffc0
7f801fe0
7f801fe0
7f801ff0
ff000ff0
00000000
00000000
00000000
00000000
00000000
00000000
00000000
00000000
ENDCHAR
STARTCHAR U+0042
ENCODING 66
SWIDTH 821 0
DWIDTH 24 0
BBX 23 36 0 -8
BITMAP
000000
000000
ffff00
ffffe0
fffff8
fffff8
fffffc
ff0ffc
ff03fc
ff03fc
ff03fc
ff03f8
fffff8
fffff0
ffffe0
fffff8
fffffc
ff03fe
ff01fe
ff01fe
ff01fe
ff01fe
fffffe
fffffe
fffffc
fffff8
fffff0
ffffc0
000000
000000
000000
000000
000000
000000
000000
000000
ENDCHAR
STARTCHAR U+0043
ENCODING 67
SWIDTH 857 0
DWIDTH 25 0
BBX 24 36 0 -8
BITMAP
000000
000000
00ffc0
07fff0
0ffff8
1ffffc
3ffffe
7fffff
7fc1ff
7f807f
ff807f
ff0000
ff0000
ff0000
ff0000
ff0000
ff0000
ff0000
ff007f
ff007f
7f807f
7fc0ff
7fffff
3ffffe
1ffffc
0ffff8
07fff0
01ffe0
000000
000000
000000
000000
000000
000000
000000
000000
ENDCHAR
STARTCHAR U+0044
ENCODING 68
SWIDTH 821 0
DWIDTH 24 0
BBX 23 36 0 -8
BITMAP
000000
000000
fffe00
ffffc0
ffffe0
fffff0
fffff8
fffffc
ff0ffc
ff03fe
ff01fe
ff01fe
ff01fe
ff01fe
ff01fe
ff01fe
ff01fe
ff01fe
ff01fe
ff01fe
ff03fe
ff0ffc
fffffc
fffff8
fffff0
fffff0
ffffc0
fffe00
000000
000000
000000
000000
000000
000000
000000
000000
ENDCHAR
STARTCHAR U+0045
ENCODING 69
SWIDTH 750 0
DWIDTH 22 0
BBX 21 36 0 -8
BITMAP
000000
000000
fffff8
fffff8
fffff8
fffff8
fffff8
fffff8
ff0000
ff0000
ff0000
ff0000
fffff0
fffff0
fffff0
fffff0
fffff0
ff0000
ff0000
ff0000
ff0000
ff0000
fffff8
fffff8
fffff8
fffff8
fffff8
fffff8
000000
000000
000000
000000
000000
000000
000000
000000
ENDCHAR
STARTCHAR U+0046
ENCODING 70
SWIDTH 679 0
DWIDTH 20 0
BBX 19 36 0 -8
BITMAP
000000
000000
ffffe0
ffffe0
ffffe0
ffffe0
ffffe0
ffffe0
ff0000
ff0000
ff0000
ff0000
ffffc0
ffffc0
ffffc0
ffffc0
ffffc0
ff0000
ff0000
ff0000
ff0000
ff0000
ff0000
ff0000
ff0000
ff0000
ff0000
ff0000
000000
000000
000000
000000
000000
000000
000000
000000
ENDCHAR
STARTCHAR U+0047
ENCODING 71
SWIDTH 929 0
DWIDTH 27 0
BBX 26 36 0 -8
BITMAP
00000000
00000000
00fff000
03fffc00
0ffffe00
1fffff00
3fffff00
3fffff80
7fc0ff80
7f807f80
ff800000
ff000000
ff000000
ff03ffc0
ff03ffc0
ff03ffc0
ff03ffc0
ff03ffc0
ff03ffc0
ff001fc0
7f801fc0
7fc03fc0
7ff0ffc0
3fffffc0
1fffffc0
0fffff00
07fffc00
00fff000
00000000
00000000
00000000
00000000
00000000
00000000
00000000
00000000
ENDCHAR
STARTCHAR U+0048
ENCODING 72
SWIDTH 857 0
DWIDTH 25 0
BBX 24 36 0 -8
BITMAP
000000
000000
ff00ff
ff00ff
ff00ff
ff00ff
ff00ff
ff00ff
ff00ff
ff00ff
ff00ff
ffffff
ffffff
ffffff
ffffff
ffffff
ffffff
ffffff
ff00ff
ff00ff
ff00ff
ff00ff
ff00ff
ff00ff
ff00ff
ff00ff
ff00ff
ff00ff
000000
000000
000000
000000
000000
000000
000000
000000
ENDCHAR
STARTCHAR U+0049
ENCODING 73
SWIDTH 286 0
DWIDTH 9 0
BBX 8 36 0 -8
BITMAP
00
00
ff
ff
ff
ff
ff
ff
ff
ff
ff
ff
ff
ff
ff
ff
ff
ff
ff
ff
ff
ff
ff
ff
ff
ff
ff
ff
00
00
00
00
00
00
00
00
ENDCHAR
STARTCHAR U+004a
ENCODING 74
SWIDTH 714 0
DWIDTH 21 0
BBX 20 36 0 -8
BITMAP
000000
000000
000ff0
000ff0
000ff0
000ff0
000ff0
000ff0
000ff0
000ff0
000ff0
000ff0
000ff0
000ff0
000ff0
000ff0
000ff0
000ff0
000ff0
fe0ff0
fe0ff0
ff0ff0
fffff0
7fffe0
7fffe0
3fffc0
1fff80
07fe00
000000
000000
000000
000000
000000
000000
000000
000000
ENDCHAR
STARTCHAR U+004b
ENCODING 75
SWIDTH 964 0
DWIDTH 28 0
BBX 27 36 0 -8
BITMAP
00000000
00000000
ff007fc0
ff00ff80
ff01ff00
ff03fe00
ff07fc00
ff0ff800
ff1ff000
ff3fe000
ff7fc000
ffffc000
ffffc000
ffffc000
ffffe000
ffffe000
fffff000
fffff800
ffeff800
ffc7fc00
ff87fc00
ff03fe00
ff03ff00
ff01ff00
ff01ff80
ff00ff80
ff00ffc0
ff007fe0
00000000
00000000
00000000
00000000
00000000
00000000
00000000
00000000
ENDCHAR
STARTCHAR U+004c
ENCODING 76
SWIDTH 714 0
DWIDTH 21 0
BBX 20 36 0 -8
BITMAP
000000
000000
ff0000
ff0000
ff0000
ff0000
ff0000
ff0000
ff0000
ff0000
ff0000
ff0000
ff0000
ff0000
ff0000
ff0000
ff0000
ff0000
ff0000
ff0000
ff0000
ff0000
fffff0
fffff0
fffff0
fffff0
fffff0
fffff0
000000
000000
000000
000000
000000
000000
000000
000000
ENDCHAR
STARTCHAR U+004d
ENCODING 77
SWIDTH 1036 0
DWIDTH 30 0
BBX 29 36 0 -8
BITMAP
00000000
00000000
ffc03ff8
ffc03ff8
ffe03ff8
ffe07ff8
ffe07ff8
ffe07ff8
fff0fff8
fff0fff8
fdf0fbf8
fdf0fbf8
fdf9fbf8
fdf9fbf8
fcf9f3f8
fcf9f3f8
fcfff3f8
fcfff3f8
fc7fe3f8
fc7fe3f8
fc7fe3f8
fc7fe3f8
fc3fc3f8
fc3fc3f8
fc3fc3f8
fc3fc3f8
fc1f83f8
fc1f83f8
00000000
00000000
00000000
00000000
00000000
00000000
00000000
00000000
ENDCHAR
STARTCHAR U+004e
ENCODING 78
SWIDTH 857 0
DWIDTH 25 0
BBX 24 36 0 -8
BITMAP
000000
000000
fe007f
ff007f
ff807f
ff807f
ffc07f
ffe07f
ffe07f
fff07f
fff87f
fff87f
fffc7f
fffe7f
fffe7f
feff7f
fe7fff
fe3fff
fe3fff
fe1fff
fe0fff
fe0fff
fe07ff
fe03ff
fe03ff
fe01ff
fe00ff
fe00ff
000000
000000
000000
000000
000000
000000
000000
000000
ENDCHAR
STARTCHAR U+004f
ENCODING 79
SWIDTH 929 0
DWIDTH 27 0
BBX 26 36 0 -8
BITMAP
00000000
00000000
00ffc000
03fff000
0ffffc00
1ffffe00
3fffff00
7fffff80
7fc0ff80
7f807f80
ff807fc0
ff003fc0
ff003fc0
ff003fc0
ff003fc0
ff003fc0
ff003fc0
ff003fc0
ff003fc0
ff003fc0
7f807f80
7fc0ff80
7fffff80
3fffff00
1ffffe00
0ffffc00
07fff800
01ffe000
00000000
00000000
00000000
00000000
00000000
00000000
00000000
00000000
ENDCHAR
STARTCHAR U+0050
ENCODING 80
SWIDTH 750 0
DWIDTH 22 0
BBX 21 36 0 -8
BITMAP
000000
000000
ffff00
ffffc0
ffffe0
fffff0
fffff8
ff0ff8
ff07f8
ff03f8
ff03f8
ff07f8
ff0ff8
fffff8
fffff0
fffff0
ffffe0
ffff80
ff0000
ff0000
ff0000
ff0000
ff0000
ff0000
ff0000
ff0000
ff0000
ff0000
000000
000000
000000
000000
000000
000000
000000
000000
ENDCHAR
STARTCHAR U+0051
ENCODING 81
SWIDTH 964 0
DWIDTH 28 0
BBX 27 36 0 -8
BITMAP
00000000
00000000
00ffc000
03fff000
0ffffc00
1ffffe00
3fffff00
3fffff80
7fc0ff80
7f807f80
ff807fc0
ff003fc0
ff003fc0
ff003fc0
ff003fc0
ff003fc0
ff003fc0
ff003fc0
ff0f3fc0
ff0fbfc0
ff87ff80
7fc3ff80
7fffff00
3fffff00
1fffff00
0fffff80
03ffffc0
01ffefc0
007f87c0
000001c0
00000000
00000000
00000000
00000000
00000000
00000000
ENDCHAR
STARTCHAR U+0052
ENCODING 82
SWIDTH 893 0
DWIDTH 26 0
BBX 25 36 0 -8
BITMAP
00000000
00000000
ffff8000
fffff000
fffff800
fffffc00
fffffc00
ff0ffe00
ff03fe00
ff01fe00
ff01fe00
ff03fe00
ff0ffc00
fffffc00
fffff800
fffff000
ffff8000
ffffc000
ff1fe000
ff1ff000
ff0ff000
ff07f800
ff03fc00
ff03fc00
ff01fe00
ff01fe00
ff00ff00
ff007f00
00000000
00000000
00000000
00000000
00000000
00000000
00000000
00000000
ENDCHAR
STARTCHAR U+0053
ENCODING 83
SWIDTH 821 0
DWIDTH 24 0
BBX 23 36 0 -8
BITMAP
000000
000000
03ff00
0fffc0
3fffe0
7ffff0
7ffff8
7f07f8
ff03f8
ff03f8
ffc000
7ffc00
7fff80
3fffe0
1ffff0
0ffff8
01fffc
003ffe
0007fe
fe03fe
fe01fe
ff01fe
ff83fe
fffffc
7ffff8
3ffff0
1fffe0
07ff80
000000
000000
000000
000000
000000
000000
000000
000000
ENDCHAR
STARTCHAR U+0054
ENCODING 84
SWIDTH 857 0
DWIDTH 25 0
BBX 24 36 0 -8
BITMAP
000000
000000
ffffff
ffffff
ffffff
ffffff
ffffff
ffffff
ffffff
00ff00
00ff00
00ff00
00ff00
00ff00
00ff00
00ff00
00ff00
00ff00
00ff00
00ff00
00ff00
00ff00
00ff00
00ff00
00ff00
00ff00
00ff00
00ff00
000000
000000
000000
000000
000000
000000
000000
000000
ENDCHAR
STARTCHAR U+0055
ENCODING 85
SWIDTH 857 0
DWIDTH 25 0
BBX 24 36 0 -8
BITMAP
000000
000000
ff00ff
ff00ff
ff00ff
ff00ff
ff00ff
ff00ff
ff00ff
ff00ff
ff00ff
ff00ff
ff00ff
ff00ff
ff00ff
ff00ff
ff00ff
ff00ff
ff00ff
ff00ff
ff00ff
ff81ff
7ffffe
7ffffe
3ffffc
1ffff8
0ffff0
03ffc0
000000
000000
000000
000000
000000
000000
000000
000000
ENDCHAR
STARTCHAR U+0056
ENCODING 86
SWIDTH 1000 0
DWIDTH 29 0
BBX 28 36 0 -8
BITMAP
00000000
00000000
ff000ff0
7f800ff0
7f801fe0
7f801fe0
3fc01fc0
3fc03fc0
3fc03fc0
1fe03f80
1fe07f80
0fe07f80
0ff07f00
0ff0ff00
07f0fe00
07f8fe00
07f8fe00
03f9fc00
03fdfc00
01fdfc00
01fff800
01fff800
00fff000
00fff000
007ff000
007fe000
007fe000
003fe000
00000000
00000000
00000000
00000000
00000000
00000000
00000000
00000000
ENDCHAR
STARTCHAR U+0057
ENCODING 87
SWIDTH 1286 0
DWIDTH 37 0
BBX 36 36 0 -8
BITMAP
0000000000
0000000000
fe03fc07f0
ff03fc0ff0
ff03fc0ff0
7f07fe0fe0
7f07fe0fe0
7f87fe0fe0
7f87ff1fe0
3f8fff1fc0
3f8fff1fc0
3f8fff1fc0
3f9fff9fc0
3fdfdfbfc0
1fdf9fbf80
1fdf9fbf80
1fff9fff80
1fff0fff80
0fff0fff00
0fff0fff00
0fff0fff00
0ffe07ff00
0ffe07ff00
07fe07fe00
07fc03fe00
07fc03fe00
07fc03fe00
03fc03fc00
0000000000
0000000000
0000000000
0000000000
0000000000
0000000000
0000000000
0000000000
ENDCHAR
STARTCHAR U+0058
ENCODING 88
SWIDTH 1000 0
DWIDTH 29 0
BBX 28 36 0 -8
BITMAP
00000000
00000000
7fc01fe0
3fc03fc0
3fe07fc0
1ff07f80
0ff0ff80
0ff8ff00
07f9fe00
03fdfe00
03fffc00
01fff800
00fff800
00fff000
007fe000
00fff000
00fff000
01fff800
03fffc00
03fffc00
07fdfe00
0ff9ff00
0ff0ff00
1ff0ff80
3fe07fc0
3fc03fc0
7fc03fe0
ff801ff0
00000000
00000000
00000000
00000000
00000000
00000000
00000000
00000000
ENDCHAR
STARTCHAR U+0059
ENCODING 89
SWIDTH 1000 0
DWIDTH 29 0
BBX 28 36 0 -8
BITMAP
00000000
00000000
ff801ff0
7fc01fe0
3fc03fe0
3fe07fc0
1fe07f80
0ff0ff80
0ff8ff00
07f9fe00
03fffe00
03fffc00
01fff800
00fff800
00fff000
007fe000
003fe000
003fc000
003fc000
003fc000
003fc000
003fc000
003fc000
003fc000
003fc000
003fc000
003fc000
003fc000
00000000
00000000
00000000
00000000
00000000
00000000
00000000
00000000
ENDCHAR
STARTCHAR U+005a
ENCODING 90
SWIDTH 857 0
DWIDTH 25 0
BBX 24 36 0 -8
BITMAP
000000
000000
7fffff
7fffff
7fffff
7fffff
7fffff
7fffff
0003fe
0007fc
000ff8
001ff0
003fe0
007fc0
00ff80
01ff00
03fe00
07fc00
0ff800
1ff000
3fe000
7fc000
ffffff
ffffff
ffffff
ffffff
ffffff
ffffff
000000
000000
000000
000000
000000
000000
000000
000000
ENDCHAR
STARTCHAR U+005b
ENCODING 91
SWIDTH 393 0
DWIDTH 12 0
BBX 11 36 0 -8
BITMAP
0000
0000
ffe0
ffe0
ffe0
ffe0
ffe0
ffe0
fe00
fe00
fe00
fe00
fe00
fe00
fe00
fe00
fe00
fe00
fe00
fe00
fe00
fe00
fe00
fe00
fe00
fe00
fe00
fe00
fe00
fe00
ffe0
ffe0
0000
0000
0000
0000
ENDCHAR
STARTCHAR U+005c
ENCODING 92
SWIDTH 357 0
DWIDTH 11 0
BBX 10 36 0 -8
BITMAP
0000
0000
f000
f000
7000
7000
7800
7800
3800
3800
3c00
3c00
1c00
1c00
1e00
1e00
1e00
0e00
0f00
0f00
0f00
0700
0780
0780
0780
0380
03c0
03c0
0000
0000
0000
0000
0000
0000
0000
0000
ENDCHAR
STARTCHAR U+005d
ENCODING 93
SWIDTH 393 0
DWIDTH 12 0
BBX 11 36 0 -8
BITMAP
0000
0000
ffe0
ffe0
ffe0
ffe0
ffe0
ffe0
0fe0
0fe0
0fe0
0fe0
0fe0
0fe0
0fe0
0fe0
0fe0
0fe0
0fe0
0fe0
0fe0
0fe0
0fe0
0fe0
0fe0
0fe0
0fe0
0fe0
0fe0
0fe0
ffe0
ffe0
0000
0000
0000
0000
ENDCHAR
STARTCHAR U+005e
ENCODING 94
SWIDTH 679 0
DWIDTH 20 0
BBX 19 36 0 -8
BITMAP
000000
000000
01f800
01f800
03fc00
03fc00
07fe00
07fe00
0fbf00
0f9f00
1f9f80
1f1f80
3f0fc0
7e0fc0
7e07e0
fe07e0
000000
000000
000000
000000
000000
000000
000000
000000
000000
000000
000000
000000
000000
000000
000000
000000
000000
000000
000000
000000
ENDCHAR
STARTCHAR U+005f
ENCODING 95
SWIDTH 643 0
DWIDTH 19 0
BBX 18 36 0 -8
BITMAP
000000
000000
000000
000000
000000
000000
000000
000000
000000
000000
000000
000000
000000
000000
000000
000000
000000
000000
000000
000000
000000
000000
000000
000000
000000
000000
000000
000000
000000
000000
000000
ffffc0
000000
000000
000000
000000
ENDCHAR
STARTCHAR U+0060
ENCODING 96
SWIDTH 286 0
DWIDTH 9 0
BBX 8 36 0 -8
BITMAP
00
00
fc
7c
3e
1e
0f
00
00
00
00
00
00
00
00
00
00
00
00
00
00
00
00
00
00
00
00
00
00
00
00
00
00
00
00
00
ENDCHAR
STARTCHAR U+0061
ENCODING 97
SWIDTH 786 0
DWIDTH 23 0
BBX 22 36 0 -8
BITMAP
000000
000000
000000
000000
000000
000000
000000
000000
000000
03ff00
0fffc0
3fffe0
3ffff0
7f87f0
7f03f8
0003f8
001ff8
03fff8
1ffff8
3ffbf8
7f83f8
7f03f8
ff07f8
ff0ff8
7ffff8
7ffff8
3ffbf8
1ff1fc
000000
000000
000000
000000
000000
000000
000000
000000
ENDCHAR
STARTCHAR U+0062
ENCODING 98
SWIDTH 750 0
DWIDTH 22 0
BBX 21 36 0 -8
BITMAP
000000
000000
fe0000
fe0000
fe0000
fe0000
fe0000
fe0000
fe0000
fe3f00
feff80
ffffe0
ffffe0
fffff0
ffcff0
ff07f0
ff07f8
fe07f8
fe03f8
fe07f8
ff07f8
ff07f0
ff8ff0
fffff0
ffffe0
ffffe0
feffc0
fe7f00
000000
000000
000000
000000
000000
000000
000000
000000
ENDCHAR
STARTCHAR U+0063
ENCODING 99
SWIDTH 750 0
DWIDTH 22 0
BBX 21 36 0 -8
BITMAP
000000
000000
000000
000000
000000
000000
000000
000000
000000
01ff00
07ffc0
1fffe0
3ffff0
3ffff8
7fc7f8
7f03f8
7f0000
ff0000
fe0000
fe0000
ff0000
7f01f8
7f83f8
7feff8
3ffff0
1ffff0
0fffc0
03ff80
000000
000000
000000
000000
000000
000000
000000
000000
ENDCHAR
STARTCHAR U+0064
ENCODING 100
SWIDTH 750 0
DWIDTH 22 0
BBX 21 36 0 -8
BITMAP
000000
000000
0003f8
0003f8
0003f8
0003f8
0003f8
0003f8
0003f8
07e3f8
0ffbf8
3ffff8
3ffff8
7ffff8
7f9ff8
ff07f8
ff07f8
ff03f8
fe03f8
fe03f8
ff07f8
ff07f8
7f8ff8
7ffff8
3ffff8
3ffff8
1ffbf8
07f3f8
000000
000000
000000
000000
000000
000000
000000
000000
ENDCHAR
STARTCHAR U+0065
ENCODING 101
SWIDTH 786 0
DWIDTH 23 0
BBX 22 36 0 -8
BITMAP
000000
000000
000000
000000
000000
000000
000000
000000
000000
01fe00
07ffc0
1fffe0
3ffff0
3fc7f8
7f03f8
7f03f8
ff01fc
fffffc
fffffc
fffffc
ff0000
ff0000
7f0000
7f87f8
3ffff0
1ffff0
0fffc0
03ff80
000000
000000
000000
000000
000000
000000
000000
000000
ENDCHAR
STARTCHAR U+0066
ENCODING 102
SWIDTH 500 0
DWIDTH 15 0
BBX 14 36 0 -8
BITMAP
0000
0000
01fc
07fc
0ffc
1ffc
1ff0
1fc0
1fc0
1fc0
fffc
fffc
fffc
fffc
1fc0
1fc0
1fc0
1fc0
1fc0
1fc0
1fc0
1fc0
1fc0
1fc0
1fc0
1fc0
1fc0
1fc0
0000
0000
0000
0000
0000
0000
0000
0000
ENDCHAR
STARTCHAR U+0067
ENCODING 103
SWIDTH 750 0
DWIDTH 22 0
BBX 21 36 0 -8
BITMAP
000000
000000
000000
000000
000000
000000
000000
000000
000000
07e3f8
1ffbf8
3ffff8
3ffff8
7ffff8
7f8ff8
ff07f8
ff07f8
fe03f8
fe03f8
fe03f8
ff07f8
7f07f8
7ffff8
3ffff8
3ffff8
1ffbf8
07e3f8
0003f8
0003f0
7f03f0
7f87f0
7ffff0
000000
000000
000000
000000
ENDCHAR
STARTCHAR U+0068
ENCODING 104
SWIDTH 714 0
DWIDTH 21 0
BBX 20 36 0 -8
BITMAP
000000
000000
fe0000
fe0000
fe0000
fe0000
fe0000
fe0000
fe0000
fe1f00
fe7fc0
ffffe0
ffffe0
fffff0
fffff0
ff0ff0
fe07f0
fe07f0
fe07f0
fe07f0
fe07f0
fe07f0
fe07f0
fe07f0
fe07f0
fe07f0
fe07f0
fe07f0
000000
000000
000000
000000
000000
000000
000000
000000
ENDCHAR
STARTCHAR U+0069
ENCODING 105
SWIDTH 286 0
DWIDTH 9 0
BBX 8 36 0 -8
BITMAP
00
00
ff
ff
ff
ff
ff
00
00
ff
ff
ff
ff
ff
ff
ff
ff
ff
ff
ff
ff
ff
ff
ff
ff
ff
ff
ff
00
00
00
00
00
00
00
00
ENDCHAR
STARTCHAR U+006a
ENCODING 106
SWIDTH 357 0
DWIDTH 11 0
BBX 10 36 0 -8
BITMAP
0000
0000
3fc0
3fc0
3fc0
3fc0
3fc0
0000
0000
3fc0
3fc0
3fc0
3fc0
3fc0
3fc0
3fc0
3fc0
3fc0
3fc0
3fc0
3fc0
3fc0
3fc0
3fc0
3fc0
3fc0
3fc0
3fc0
3fc0
3fc0
ff80
ff80
0000
0000
0000
0000
ENDCHAR
STARTCHAR U+006b
ENCODING 107
SWIDTH 786 0
DWIDTH 23 0
BBX 22 36 0 -8
BITMAP
000000
000000
fe0000
fe0000
fe0000
fe0000
fe0000
fe0000
fe0000
fe07f8
fe0ff0
fe1fe0
fe3fc0
fe7f80
feff00
fffe00
fffe00
ffff00
ffff00
ffff80
ffffc0
ff9fc0
ff0fe0
fe0fe0
fe07f0
fe07f8
fe03f8
fe01fc
000000
000000
000000
000000
000000
000000
000000
000000
ENDCHAR
STARTCHAR U+006c
ENCODING 108
SWIDTH 286 0
DWIDTH 9 0
BBX 8 36 0 -8
BITMAP
00
00
ff
ff
ff
ff
ff
ff
ff
ff
ff
ff
ff
ff
ff
ff
ff
ff
ff
ff
ff
ff
ff
ff
ff
ff
ff
ff
00
00
00
00
00
00
00
00
ENDCHAR
STARTCHAR U+006d
ENCODING 109
SWIDTH 1143 0
DWIDTH 33 0
BBX 32 36 0 -8
BITMAP
00000000
00000000
00000000
00000000
00000000
00000000
00000000
00000000
00000000
fe3f03f0
fe7fc7fc
ffffcffe
fffffffe
ffffffff
ffffffff
ff0ff8ff
fe0ff07f
fe0ff07f
fe0ff07f
fe0ff07f
fe0ff07f
fe0ff07f
fe0ff07f
fe0ff07f
fe0ff07f
fe0ff07f
fe0ff07f
fe0ff07f
00000000
00000000
00000000
00000000
00000000
00000000
00000000
00000000
ENDCHAR
STARTCHAR U+006e
ENCODING 110
SWIDTH 714 0
DWIDTH 21 0
BBX 20 36 0 -8
BITMAP
000000
000000
000000
000000
000000
000000
000000
000000
000000
fe1f00
fe7fc0
feffe0
ffffe0
fffff0
fffff0
ff0ff0
fe07f0
fe07f0
fe07f0
fe07f0
fe07f0
fe07f0
fe07f0
fe07f0
fe07f0
fe07f0
fe07f0
fe07f0
000000
000000
000000
000000
000000
000000
000000
000000
ENDCHAR
STARTCHAR U+006f
ENCODING 111
SWIDTH 786 0
DWIDTH 23 0
BBX 22 36 0 -8
BITMAP
000000
000000
000000
000000
000000
000000
000000
000000
000000
01fe00
07ff80
1fffe0
1ffff0
3ffff0
7f87f8
7f03f8
ff03fc
ff03fc
fe01fc
ff03fc
ff03fc
7f03f8
7f87f8
3ffff0
3ffff0
1fffe0
0fff80
03ff00
000000
000000
000000
000000
000000
000000
000000
000000
ENDCHAR
STARTCHAR U+0070
ENCODING 112
SWIDTH 750 0
DWIDTH 22 0
BBX 21 36 0 -8
BITMAP
000000
000000
000000
000000
000000
000000
000000
000000
000000
fe3f00
feff80
ffffc0
ffffe0
fffff0
ff8ff0
ff07f0
ff07f8
fe03f8
fe03f8
fe03f8
ff07f8
ff07f8
ff8ff0
fffff0
ffffe0
ffffe0
ffffc0
fe7f00
fe0000
fe0000
fe0000
fe0000
000000
000000
000000
000000
ENDCHAR
STARTCHAR U+0071
ENCODING 113
SWIDTH 750 0
DWIDTH 22 0
BBX 21 36 0 -8
BITMAP
000000
000000
000000
000000
000000
000000
000000
000000
000000
03e3f8
0ffbf8
1ffff8
3ffff8
7ffff8
7f8ff8
7f07f8
ff07f8
fe03f8
fe03f8
fe03f8
ff07f8
7f07f8
7f8ff8
7ffff8
3ffff8
3ffff8
1ffff8
03f3f8
0003f8
0003f8
0003f8
0003f8
000000
000000
000000
000000
ENDCHAR
STARTCHAR U+0072
ENCODING 114
SWIDTH 500 0
DWIDTH 15 0
BBX 14 36 0 -8
BITMAP
0000
0000
0000
0000
0000
0000
0000
0000
0000
fe7c
fefc
fffc
fffc
fff8
ffe0
ff80
ff00
fe00
fe00
fe00
fe00
fe00
fe00
fe00
fe00
fe00
fe00
fe00
0000
0000
0000
0000
0000
0000
0000
0000
ENDCHAR
STARTCHAR U+0073
ENCODING 115
SWIDTH 714 0
DWIDTH 21 0
BBX 20 36 0 -8
BITMAP
000000
000000
000000
000000
000000
000000
000000
000000
01fc00
07fe00
1fff80
3fffc0
7fffc0
7e0fe0
7e0000
7f8000
7ffe00
3fff80
1fffc0
0fffe0
00ffe0
000ff0
fe07f0
ff07e0
7fffe0
7fffc0
3fff80
0fff00
000000
000000
000000
000000
000000
000000
000000
000000
ENDCHAR
STARTCHAR U+0074
ENCODING 116
SWIDTH 500 0
DWIDTH 15 0
BBX 14 36 0 -8
BITMAP
0000
0000
0000
01c0
07c0
1fc0
1fc0
1fc0
1fc0
fffc
fffc
fffc
fffc
fffc
fffc
1fc0
1fc0
1fc0
1fc0
1fc0
1fc0
1fc0
1fc0
1ffc
1ffc
1ffc
0ffc
07fc
0000
0000
0000
0000
0000
0000
0000
0000
ENDCHAR
STARTCHAR U+0075
ENCODING 117
SWIDTH 714 0
DWIDTH 21 0
BBX 20 36 0 -8
BITMAP
000000
000000
000000
000000
000000
000000
000000
000000
000000
fe07f0
fe07f0
fe07f0
fe07f0
fe07f0
fe07f0
fe07f0
fe07f0
fe07f0
fe07f0
fe07f0
fe07f0
ff0ff0
ff9ff0
fffff0
7ffff0
7ffff0
3ff7f0
1fc7f0
000000
000000
000000
000000
000000
000000
000000
000000
ENDCHAR
STARTCHAR U+0076
ENCODING 118
SWIDTH 786 0
DWIDTH 23 0
BBX 22 36 0 -8
BITMAP
000000
000000
000000
000000
000000
000000
000000
000000
000000
fe01fc
7f01fc
7f03f8
7f03f8
3f83f0
3f87f0
1f87e0
1fc7e0
1fcfe0
0fcfc0
0fefc0
07ff80
07ff80
03ff00
03ff00
03ff00
01fe00
01fe00
00fc00
000000
000000
000000
000000
000000
000000
000000
000000
ENDCHAR
STARTCHAR U+0077
ENCODING 119
SWIDTH 1214 0
DWIDTH 35 0
BBX 34 36 0 -8
BITMAP
0000000000
0000000000
0000000000
0000000000
0000000000
0000000000
0000000000
0000000000
0000000000
fe03f01fc0
fe07f81fc0
7f07f81f80
7f07f83f80
3f0ffc3f80
3f0ffc3f00
3f8ffc3f00
1f9ffe7e00
1f9ffe7e00
1f9f3e7e00
0fdf3f7c00
0fff3ffc00
07fe1ffc00
07fe1ff800
07fe1ff800
03fe0ff000
03fc0ff000
03fc0ff000
01fc07e000
0000000000
0000000000
0000000000
0000000000
0000000000
0000000000
0000000000
0000000000
ENDCHAR
STARTCHAR U+0078
ENCODING 120
SWIDTH 786 0
DWIDTH 23 0
BBX 22 36 0 -8
BITMAP
000000
000000
000000
000000
000000
000000
000000
000000
000000
ff01fc
ff83fc
7f87f8
3fcff0
1fcfe0
1fffe0
0fffc0
07ff80
07ff00
03ff00
07ff80
0fffc0
0fffc0
1fffe0
3fcff0
3f8ff0
7f87f8
ff03fc
fe01fc
000000
000000
000000
000000
000000
000000
000000
000000
ENDCHAR
STARTCHAR U+0079
ENCODING 121
SWIDTH 786 0
DWIDTH 23 0
BBX 22 36 0 -8
BITMAP
000000
000000
000000
000000
000000
000000
000000
000000
000000
fe01fc
7f01fc
7f03f8
7f83f8
3f83f8
3f83f0
1fc7f0
1fc7e0
0fc7e0
0fcfe0
0fefc0
07efc0
07ffc0
03ff80
03ff80
03ff00
01ff00
01ff00
00fe00
00fe00
01fe00
67fc00
7ffc00
000000
000000
000000
000000
ENDCHAR
STARTCHAR U+007a
ENCODING 122
SWIDTH 643 0
DWIDTH 19 0
BBX 18 36 0 -8
BITMAP
000000
000000
000000
000000
000000
000000
000000
000000
000000
ffffc0
ffffc0
ffffc0
ffffc0
ffffc0
00ff80
01ff00
03fe00
07fc00
0ff800
1ff000
3fe000
7fc000
ff8000
ffffc0
ffffc0
ffffc0
ffffc0
ffffc0
000000
000000
000000
000000
000000
000000
000000
000000
ENDCHAR
STARTCHAR U+007b
ENCODING 123
SWIDTH 500 0
DWIDTH 15 0
BBX 14 36 0 -8
BITMAP
0000
0000
01f8
07fc
07fc
0ffc
0ffc
0ff8
0fe0
0fc0
0fc0
0fc0
0fc0
0fc0
1fc0
7fc0
ff80
ff80
ff00
ff00
ff80
7fc0
1fc0
0fc0
0fc0
0fc0
0fc0
0fc0
0fe0
0fe0
0ffc
0ffc
0000
0000
0000
0000
ENDCHAR
STARTCHAR U+007c
ENCODING 124
SWIDTH 143 0
DWIDTH 5 0
BBX 4 36 0 -8
BITMAP
00
00
f0
f0
f0
f0
f0
f0
f0
f0
f0
f0
f0
f0
f0
f0
f0
f0
f0
f0
f0
f0
f0
f0
f0
f0
f0
f0
f0
f0
f0
f0
00
00
00
00
ENDCHAR
STARTCHAR U+007d
ENCODING 125
SWIDTH 500 0
DWIDTH 15 0
BBX 14 36 0 -8
BITMAP
0000
0000
7e00
ff80
ff80
ffc0
ffc0
7fc0
1fc0
0fc0
0fc0
0fc0
0fc0
0fc0
0fe0
0ff8
07fc
07fc
03fc
03fc
07fc
0ff8
0fe0
0fc0
0fc0
0fc0
0fc0
0fc0
1fc0
1fc0
ffc0
ffc0
0000
0000
0000
0000
ENDCHAR
STARTCHAR U+007e
ENCODING 126
SWIDTH 714 0
DWIDTH 21 0
BBX 20 36 0 -8
BITMAP
000000
000000
000000
000000
000000
000000
000000
000000
000000
000000
000000
1f8010
7fe030
fff8f0
fffff0
fffff0
fffff0
c0ffe0
801f80
000000
000000
000000
000000
000000
000000
000000
000000
000000
000000
000000
000000
000000
000000
000000
000000
000000
ENDCHAR
STARTCHAR U+007f
ENCODING 127
SWIDTH 0 0
DWIDTH 1 0
BBX 0 36 0 -8
BITMAP
0
0
0
0
0
0
0
0
0
0
0
0
0
0
0
0
0
0
0
0
0
0
0
0
0
0
0
0
0
0
0
0
0
0
0
0
ENDCHAR
ENDFONT
